<?xml version="1.0" encoding="utf-8" standalone="no"?>
<!DOCTYPE svg PUBLIC "-//W3C//DTD SVG 1.1//EN"
  "http://www.w3.org/Graphics/SVG/1.1/DTD/svg11.dtd">
<svg xmlns:xlink="http://www.w3.org/1999/xlink" width="624.60101pt" height="395.969687pt" viewBox="0 0 624.60101 395.969687" xmlns="http://www.w3.org/2000/svg" version="1.1">
 <metadata>
  <rdf:RDF xmlns:dc="http://purl.org/dc/elements/1.1/" xmlns:cc="http://creativecommons.org/ns#" xmlns:rdf="http://www.w3.org/1999/02/22-rdf-syntax-ns#">
   <cc:Work>
    <dc:type rdf:resource="http://purl.org/dc/dcmitype/StillImage"/>
    <dc:date>2025-05-08T14:28:12.112913</dc:date>
    <dc:format>image/svg+xml</dc:format>
    <dc:creator>
     <cc:Agent>
      <dc:title>Matplotlib v3.9.2, https://matplotlib.org/</dc:title>
     </cc:Agent>
    </dc:creator>
   </cc:Work>
  </rdf:RDF>
 </metadata>
 <defs>
  <style type="text/css">*{stroke-linejoin: round; stroke-linecap: butt}</style>
 </defs>
 <g id="figure_1">
  <g id="patch_1">
   <path d="M 0 395.969687 
L 624.60101 395.969687 
L 624.60101 0 
L 0 0 
z
" style="fill: #ffffff"/>
  </g>
  <g id="axes_1">
   <g id="patch_2">
    <path d="M 58.441875 356.477812 
L 616.441875 356.477812 
L 616.441875 23.837812 
L 58.441875 23.837812 
z
" style="fill: #ffffff"/>
   </g>
   <g id="matplotlib.axis_1">
    <g id="xtick_1">
     <g id="line2d_1">
      <path d="M 58.441875 356.477812 
L 58.441875 23.837812 
" clip-path="url(#p665bf3038d)" style="fill: none; stroke-dasharray: 1.85,0.8; stroke-dashoffset: 0; stroke: #d3d3d3; stroke-opacity: 0.4; stroke-width: 0.5"/>
     </g>
     <g id="line2d_2">
      <defs>
       <path id="mb7160d9a70" d="M 0 0 
L 0 3.5 
" style="stroke: #000000; stroke-width: 0.8"/>
      </defs>
      <g>
       <use xlink:href="#mb7160d9a70" x="58.441875" y="356.477812" style="stroke: #000000; stroke-width: 0.8"/>
      </g>
     </g>
     <g id="text_1">
      <!-- 0 -->
      <g transform="translate(55.260625 371.07625) scale(0.1 -0.1)">
       <defs>
        <path id="DejaVuSans-30" d="M 2034 4250 
Q 1547 4250 1301 3770 
Q 1056 3291 1056 2328 
Q 1056 1369 1301 889 
Q 1547 409 2034 409 
Q 2525 409 2770 889 
Q 3016 1369 3016 2328 
Q 3016 3291 2770 3770 
Q 2525 4250 2034 4250 
z
M 2034 4750 
Q 2819 4750 3233 4129 
Q 3647 3509 3647 2328 
Q 3647 1150 3233 529 
Q 2819 -91 2034 -91 
Q 1250 -91 836 529 
Q 422 1150 422 2328 
Q 422 3509 836 4129 
Q 1250 4750 2034 4750 
z
" transform="scale(0.015625)"/>
       </defs>
       <use xlink:href="#DejaVuSans-30"/>
      </g>
     </g>
    </g>
    <g id="xtick_2">
     <g id="line2d_3">
      <path d="M 127.118798 356.477812 
L 127.118798 23.837812 
" clip-path="url(#p665bf3038d)" style="fill: none; stroke-dasharray: 1.85,0.8; stroke-dashoffset: 0; stroke: #d3d3d3; stroke-opacity: 0.4; stroke-width: 0.5"/>
     </g>
     <g id="line2d_4">
      <g>
       <use xlink:href="#mb7160d9a70" x="127.118798" y="356.477812" style="stroke: #000000; stroke-width: 0.8"/>
      </g>
     </g>
     <g id="text_2">
      <!-- 32 -->
      <g transform="translate(120.756298 371.07625) scale(0.1 -0.1)">
       <defs>
        <path id="DejaVuSans-33" d="M 2597 2516 
Q 3050 2419 3304 2112 
Q 3559 1806 3559 1356 
Q 3559 666 3084 287 
Q 2609 -91 1734 -91 
Q 1441 -91 1130 -33 
Q 819 25 488 141 
L 488 750 
Q 750 597 1062 519 
Q 1375 441 1716 441 
Q 2309 441 2620 675 
Q 2931 909 2931 1356 
Q 2931 1769 2642 2001 
Q 2353 2234 1838 2234 
L 1294 2234 
L 1294 2753 
L 1863 2753 
Q 2328 2753 2575 2939 
Q 2822 3125 2822 3475 
Q 2822 3834 2567 4026 
Q 2313 4219 1838 4219 
Q 1578 4219 1281 4162 
Q 984 4106 628 3988 
L 628 4550 
Q 988 4650 1302 4700 
Q 1616 4750 1894 4750 
Q 2613 4750 3031 4423 
Q 3450 4097 3450 3541 
Q 3450 3153 3228 2886 
Q 3006 2619 2597 2516 
z
" transform="scale(0.015625)"/>
        <path id="DejaVuSans-32" d="M 1228 531 
L 3431 531 
L 3431 0 
L 469 0 
L 469 531 
Q 828 903 1448 1529 
Q 2069 2156 2228 2338 
Q 2531 2678 2651 2914 
Q 2772 3150 2772 3378 
Q 2772 3750 2511 3984 
Q 2250 4219 1831 4219 
Q 1534 4219 1204 4116 
Q 875 4013 500 3803 
L 500 4441 
Q 881 4594 1212 4672 
Q 1544 4750 1819 4750 
Q 2544 4750 2975 4387 
Q 3406 4025 3406 3419 
Q 3406 3131 3298 2873 
Q 3191 2616 2906 2266 
Q 2828 2175 2409 1742 
Q 1991 1309 1228 531 
z
" transform="scale(0.015625)"/>
       </defs>
       <use xlink:href="#DejaVuSans-33"/>
       <use xlink:href="#DejaVuSans-32" x="63.623047"/>
      </g>
     </g>
    </g>
    <g id="xtick_3">
     <g id="line2d_5">
      <path d="M 195.795721 356.477812 
L 195.795721 23.837812 
" clip-path="url(#p665bf3038d)" style="fill: none; stroke-dasharray: 1.85,0.8; stroke-dashoffset: 0; stroke: #d3d3d3; stroke-opacity: 0.4; stroke-width: 0.5"/>
     </g>
     <g id="line2d_6">
      <g>
       <use xlink:href="#mb7160d9a70" x="195.795721" y="356.477812" style="stroke: #000000; stroke-width: 0.8"/>
      </g>
     </g>
     <g id="text_3">
      <!-- 64 -->
      <g transform="translate(189.433221 371.07625) scale(0.1 -0.1)">
       <defs>
        <path id="DejaVuSans-36" d="M 2113 2584 
Q 1688 2584 1439 2293 
Q 1191 2003 1191 1497 
Q 1191 994 1439 701 
Q 1688 409 2113 409 
Q 2538 409 2786 701 
Q 3034 994 3034 1497 
Q 3034 2003 2786 2293 
Q 2538 2584 2113 2584 
z
M 3366 4563 
L 3366 3988 
Q 3128 4100 2886 4159 
Q 2644 4219 2406 4219 
Q 1781 4219 1451 3797 
Q 1122 3375 1075 2522 
Q 1259 2794 1537 2939 
Q 1816 3084 2150 3084 
Q 2853 3084 3261 2657 
Q 3669 2231 3669 1497 
Q 3669 778 3244 343 
Q 2819 -91 2113 -91 
Q 1303 -91 875 529 
Q 447 1150 447 2328 
Q 447 3434 972 4092 
Q 1497 4750 2381 4750 
Q 2619 4750 2861 4703 
Q 3103 4656 3366 4563 
z
" transform="scale(0.015625)"/>
        <path id="DejaVuSans-34" d="M 2419 4116 
L 825 1625 
L 2419 1625 
L 2419 4116 
z
M 2253 4666 
L 3047 4666 
L 3047 1625 
L 3713 1625 
L 3713 1100 
L 3047 1100 
L 3047 0 
L 2419 0 
L 2419 1100 
L 313 1100 
L 313 1709 
L 2253 4666 
z
" transform="scale(0.015625)"/>
       </defs>
       <use xlink:href="#DejaVuSans-36"/>
       <use xlink:href="#DejaVuSans-34" x="63.623047"/>
      </g>
     </g>
    </g>
    <g id="xtick_4">
     <g id="line2d_7">
      <path d="M 264.472644 356.477812 
L 264.472644 23.837812 
" clip-path="url(#p665bf3038d)" style="fill: none; stroke-dasharray: 1.85,0.8; stroke-dashoffset: 0; stroke: #d3d3d3; stroke-opacity: 0.4; stroke-width: 0.5"/>
     </g>
     <g id="line2d_8">
      <g>
       <use xlink:href="#mb7160d9a70" x="264.472644" y="356.477812" style="stroke: #000000; stroke-width: 0.8"/>
      </g>
     </g>
     <g id="text_4">
      <!-- 96 -->
      <g transform="translate(258.110144 371.07625) scale(0.1 -0.1)">
       <defs>
        <path id="DejaVuSans-39" d="M 703 97 
L 703 672 
Q 941 559 1184 500 
Q 1428 441 1663 441 
Q 2288 441 2617 861 
Q 2947 1281 2994 2138 
Q 2813 1869 2534 1725 
Q 2256 1581 1919 1581 
Q 1219 1581 811 2004 
Q 403 2428 403 3163 
Q 403 3881 828 4315 
Q 1253 4750 1959 4750 
Q 2769 4750 3195 4129 
Q 3622 3509 3622 2328 
Q 3622 1225 3098 567 
Q 2575 -91 1691 -91 
Q 1453 -91 1209 -44 
Q 966 3 703 97 
z
M 1959 2075 
Q 2384 2075 2632 2365 
Q 2881 2656 2881 3163 
Q 2881 3666 2632 3958 
Q 2384 4250 1959 4250 
Q 1534 4250 1286 3958 
Q 1038 3666 1038 3163 
Q 1038 2656 1286 2365 
Q 1534 2075 1959 2075 
z
" transform="scale(0.015625)"/>
       </defs>
       <use xlink:href="#DejaVuSans-39"/>
       <use xlink:href="#DejaVuSans-36" x="63.623047"/>
      </g>
     </g>
    </g>
    <g id="xtick_5">
     <g id="line2d_9">
      <path d="M 333.149567 356.477812 
L 333.149567 23.837812 
" clip-path="url(#p665bf3038d)" style="fill: none; stroke-dasharray: 1.85,0.8; stroke-dashoffset: 0; stroke: #d3d3d3; stroke-opacity: 0.4; stroke-width: 0.5"/>
     </g>
     <g id="line2d_10">
      <g>
       <use xlink:href="#mb7160d9a70" x="333.149567" y="356.477812" style="stroke: #000000; stroke-width: 0.8"/>
      </g>
     </g>
     <g id="text_5">
      <!-- 128 -->
      <g transform="translate(323.605817 371.07625) scale(0.1 -0.1)">
       <defs>
        <path id="DejaVuSans-31" d="M 794 531 
L 1825 531 
L 1825 4091 
L 703 3866 
L 703 4441 
L 1819 4666 
L 2450 4666 
L 2450 531 
L 3481 531 
L 3481 0 
L 794 0 
L 794 531 
z
" transform="scale(0.015625)"/>
        <path id="DejaVuSans-38" d="M 2034 2216 
Q 1584 2216 1326 1975 
Q 1069 1734 1069 1313 
Q 1069 891 1326 650 
Q 1584 409 2034 409 
Q 2484 409 2743 651 
Q 3003 894 3003 1313 
Q 3003 1734 2745 1975 
Q 2488 2216 2034 2216 
z
M 1403 2484 
Q 997 2584 770 2862 
Q 544 3141 544 3541 
Q 544 4100 942 4425 
Q 1341 4750 2034 4750 
Q 2731 4750 3128 4425 
Q 3525 4100 3525 3541 
Q 3525 3141 3298 2862 
Q 3072 2584 2669 2484 
Q 3125 2378 3379 2068 
Q 3634 1759 3634 1313 
Q 3634 634 3220 271 
Q 2806 -91 2034 -91 
Q 1263 -91 848 271 
Q 434 634 434 1313 
Q 434 1759 690 2068 
Q 947 2378 1403 2484 
z
M 1172 3481 
Q 1172 3119 1398 2916 
Q 1625 2713 2034 2713 
Q 2441 2713 2670 2916 
Q 2900 3119 2900 3481 
Q 2900 3844 2670 4047 
Q 2441 4250 2034 4250 
Q 1625 4250 1398 4047 
Q 1172 3844 1172 3481 
z
" transform="scale(0.015625)"/>
       </defs>
       <use xlink:href="#DejaVuSans-31"/>
       <use xlink:href="#DejaVuSans-32" x="63.623047"/>
       <use xlink:href="#DejaVuSans-38" x="127.246094"/>
      </g>
     </g>
    </g>
    <g id="xtick_6">
     <g id="line2d_11">
      <path d="M 401.82649 356.477812 
L 401.82649 23.837812 
" clip-path="url(#p665bf3038d)" style="fill: none; stroke-dasharray: 1.85,0.8; stroke-dashoffset: 0; stroke: #d3d3d3; stroke-opacity: 0.4; stroke-width: 0.5"/>
     </g>
     <g id="line2d_12">
      <g>
       <use xlink:href="#mb7160d9a70" x="401.82649" y="356.477812" style="stroke: #000000; stroke-width: 0.8"/>
      </g>
     </g>
     <g id="text_6">
      <!-- 160 -->
      <g transform="translate(392.28274 371.07625) scale(0.1 -0.1)">
       <use xlink:href="#DejaVuSans-31"/>
       <use xlink:href="#DejaVuSans-36" x="63.623047"/>
       <use xlink:href="#DejaVuSans-30" x="127.246094"/>
      </g>
     </g>
    </g>
    <g id="xtick_7">
     <g id="line2d_13">
      <path d="M 470.503413 356.477812 
L 470.503413 23.837812 
" clip-path="url(#p665bf3038d)" style="fill: none; stroke-dasharray: 1.85,0.8; stroke-dashoffset: 0; stroke: #d3d3d3; stroke-opacity: 0.4; stroke-width: 0.5"/>
     </g>
     <g id="line2d_14">
      <g>
       <use xlink:href="#mb7160d9a70" x="470.503413" y="356.477812" style="stroke: #000000; stroke-width: 0.8"/>
      </g>
     </g>
     <g id="text_7">
      <!-- 192 -->
      <g transform="translate(460.959663 371.07625) scale(0.1 -0.1)">
       <use xlink:href="#DejaVuSans-31"/>
       <use xlink:href="#DejaVuSans-39" x="63.623047"/>
       <use xlink:href="#DejaVuSans-32" x="127.246094"/>
      </g>
     </g>
    </g>
    <g id="xtick_8">
     <g id="line2d_15">
      <path d="M 539.180337 356.477812 
L 539.180337 23.837812 
" clip-path="url(#p665bf3038d)" style="fill: none; stroke-dasharray: 1.85,0.8; stroke-dashoffset: 0; stroke: #d3d3d3; stroke-opacity: 0.4; stroke-width: 0.5"/>
     </g>
     <g id="line2d_16">
      <g>
       <use xlink:href="#mb7160d9a70" x="539.180337" y="356.477812" style="stroke: #000000; stroke-width: 0.8"/>
      </g>
     </g>
     <g id="text_8">
      <!-- 224 -->
      <g transform="translate(529.636587 371.07625) scale(0.1 -0.1)">
       <use xlink:href="#DejaVuSans-32"/>
       <use xlink:href="#DejaVuSans-32" x="63.623047"/>
       <use xlink:href="#DejaVuSans-34" x="127.246094"/>
      </g>
     </g>
    </g>
    <g id="xtick_9">
     <g id="line2d_17">
      <path d="M 607.85726 356.477812 
L 607.85726 23.837812 
" clip-path="url(#p665bf3038d)" style="fill: none; stroke-dasharray: 1.85,0.8; stroke-dashoffset: 0; stroke: #d3d3d3; stroke-opacity: 0.4; stroke-width: 0.5"/>
     </g>
     <g id="line2d_18">
      <g>
       <use xlink:href="#mb7160d9a70" x="607.85726" y="356.477812" style="stroke: #000000; stroke-width: 0.8"/>
      </g>
     </g>
     <g id="text_9">
      <!-- 256 -->
      <g transform="translate(598.31351 371.07625) scale(0.1 -0.1)">
       <defs>
        <path id="DejaVuSans-35" d="M 691 4666 
L 3169 4666 
L 3169 4134 
L 1269 4134 
L 1269 2991 
Q 1406 3038 1543 3061 
Q 1681 3084 1819 3084 
Q 2600 3084 3056 2656 
Q 3513 2228 3513 1497 
Q 3513 744 3044 326 
Q 2575 -91 1722 -91 
Q 1428 -91 1123 -41 
Q 819 9 494 109 
L 494 744 
Q 775 591 1075 516 
Q 1375 441 1709 441 
Q 2250 441 2565 725 
Q 2881 1009 2881 1497 
Q 2881 1984 2565 2268 
Q 2250 2553 1709 2553 
Q 1456 2553 1204 2497 
Q 953 2441 691 2322 
L 691 4666 
z
" transform="scale(0.015625)"/>
       </defs>
       <use xlink:href="#DejaVuSans-32"/>
       <use xlink:href="#DejaVuSans-35" x="63.623047"/>
       <use xlink:href="#DejaVuSans-36" x="127.246094"/>
      </g>
     </g>
    </g>
    <g id="xtick_10">
     <g id="line2d_19">
      <defs>
       <path id="m7f8be48e6b" d="M 0 0 
L 0 2 
" style="stroke: #000000; stroke-width: 0.6"/>
      </defs>
      <g>
       <use xlink:href="#m7f8be48e6b" x="92.780337" y="356.477812" style="stroke: #000000; stroke-width: 0.6"/>
      </g>
     </g>
    </g>
    <g id="xtick_11">
     <g id="line2d_20">
      <g>
       <use xlink:href="#m7f8be48e6b" x="161.45726" y="356.477812" style="stroke: #000000; stroke-width: 0.6"/>
      </g>
     </g>
    </g>
    <g id="xtick_12">
     <g id="line2d_21">
      <g>
       <use xlink:href="#m7f8be48e6b" x="230.134183" y="356.477812" style="stroke: #000000; stroke-width: 0.6"/>
      </g>
     </g>
    </g>
    <g id="xtick_13">
     <g id="line2d_22">
      <g>
       <use xlink:href="#m7f8be48e6b" x="298.811106" y="356.477812" style="stroke: #000000; stroke-width: 0.6"/>
      </g>
     </g>
    </g>
    <g id="xtick_14">
     <g id="line2d_23">
      <g>
       <use xlink:href="#m7f8be48e6b" x="367.488029" y="356.477812" style="stroke: #000000; stroke-width: 0.6"/>
      </g>
     </g>
    </g>
    <g id="xtick_15">
     <g id="line2d_24">
      <g>
       <use xlink:href="#m7f8be48e6b" x="436.164952" y="356.477812" style="stroke: #000000; stroke-width: 0.6"/>
      </g>
     </g>
    </g>
    <g id="xtick_16">
     <g id="line2d_25">
      <g>
       <use xlink:href="#m7f8be48e6b" x="504.841875" y="356.477812" style="stroke: #000000; stroke-width: 0.6"/>
      </g>
     </g>
    </g>
    <g id="xtick_17">
     <g id="line2d_26">
      <g>
       <use xlink:href="#m7f8be48e6b" x="573.518798" y="356.477812" style="stroke: #000000; stroke-width: 0.6"/>
      </g>
     </g>
    </g>
    <g id="text_10">
     <!-- Token Position -->
     <g transform="translate(295.110937 386.274062) scale(0.12 -0.12)">
      <defs>
       <path id="DejaVuSans-54" d="M -19 4666 
L 3928 4666 
L 3928 4134 
L 2272 4134 
L 2272 0 
L 1638 0 
L 1638 4134 
L -19 4134 
L -19 4666 
z
" transform="scale(0.015625)"/>
       <path id="DejaVuSans-6f" d="M 1959 3097 
Q 1497 3097 1228 2736 
Q 959 2375 959 1747 
Q 959 1119 1226 758 
Q 1494 397 1959 397 
Q 2419 397 2687 759 
Q 2956 1122 2956 1747 
Q 2956 2369 2687 2733 
Q 2419 3097 1959 3097 
z
M 1959 3584 
Q 2709 3584 3137 3096 
Q 3566 2609 3566 1747 
Q 3566 888 3137 398 
Q 2709 -91 1959 -91 
Q 1206 -91 779 398 
Q 353 888 353 1747 
Q 353 2609 779 3096 
Q 1206 3584 1959 3584 
z
" transform="scale(0.015625)"/>
       <path id="DejaVuSans-6b" d="M 581 4863 
L 1159 4863 
L 1159 1991 
L 2875 3500 
L 3609 3500 
L 1753 1863 
L 3688 0 
L 2938 0 
L 1159 1709 
L 1159 0 
L 581 0 
L 581 4863 
z
" transform="scale(0.015625)"/>
       <path id="DejaVuSans-65" d="M 3597 1894 
L 3597 1613 
L 953 1613 
Q 991 1019 1311 708 
Q 1631 397 2203 397 
Q 2534 397 2845 478 
Q 3156 559 3463 722 
L 3463 178 
Q 3153 47 2828 -22 
Q 2503 -91 2169 -91 
Q 1331 -91 842 396 
Q 353 884 353 1716 
Q 353 2575 817 3079 
Q 1281 3584 2069 3584 
Q 2775 3584 3186 3129 
Q 3597 2675 3597 1894 
z
M 3022 2063 
Q 3016 2534 2758 2815 
Q 2500 3097 2075 3097 
Q 1594 3097 1305 2825 
Q 1016 2553 972 2059 
L 3022 2063 
z
" transform="scale(0.015625)"/>
       <path id="DejaVuSans-6e" d="M 3513 2113 
L 3513 0 
L 2938 0 
L 2938 2094 
Q 2938 2591 2744 2837 
Q 2550 3084 2163 3084 
Q 1697 3084 1428 2787 
Q 1159 2491 1159 1978 
L 1159 0 
L 581 0 
L 581 3500 
L 1159 3500 
L 1159 2956 
Q 1366 3272 1645 3428 
Q 1925 3584 2291 3584 
Q 2894 3584 3203 3211 
Q 3513 2838 3513 2113 
z
" transform="scale(0.015625)"/>
       <path id="DejaVuSans-20" transform="scale(0.015625)"/>
       <path id="DejaVuSans-50" d="M 1259 4147 
L 1259 2394 
L 2053 2394 
Q 2494 2394 2734 2622 
Q 2975 2850 2975 3272 
Q 2975 3691 2734 3919 
Q 2494 4147 2053 4147 
L 1259 4147 
z
M 628 4666 
L 2053 4666 
Q 2838 4666 3239 4311 
Q 3641 3956 3641 3272 
Q 3641 2581 3239 2228 
Q 2838 1875 2053 1875 
L 1259 1875 
L 1259 0 
L 628 0 
L 628 4666 
z
" transform="scale(0.015625)"/>
       <path id="DejaVuSans-73" d="M 2834 3397 
L 2834 2853 
Q 2591 2978 2328 3040 
Q 2066 3103 1784 3103 
Q 1356 3103 1142 2972 
Q 928 2841 928 2578 
Q 928 2378 1081 2264 
Q 1234 2150 1697 2047 
L 1894 2003 
Q 2506 1872 2764 1633 
Q 3022 1394 3022 966 
Q 3022 478 2636 193 
Q 2250 -91 1575 -91 
Q 1294 -91 989 -36 
Q 684 19 347 128 
L 347 722 
Q 666 556 975 473 
Q 1284 391 1588 391 
Q 1994 391 2212 530 
Q 2431 669 2431 922 
Q 2431 1156 2273 1281 
Q 2116 1406 1581 1522 
L 1381 1569 
Q 847 1681 609 1914 
Q 372 2147 372 2553 
Q 372 3047 722 3315 
Q 1072 3584 1716 3584 
Q 2034 3584 2315 3537 
Q 2597 3491 2834 3397 
z
" transform="scale(0.015625)"/>
       <path id="DejaVuSans-69" d="M 603 3500 
L 1178 3500 
L 1178 0 
L 603 0 
L 603 3500 
z
M 603 4863 
L 1178 4863 
L 1178 4134 
L 603 4134 
L 603 4863 
z
" transform="scale(0.015625)"/>
       <path id="DejaVuSans-74" d="M 1172 4494 
L 1172 3500 
L 2356 3500 
L 2356 3053 
L 1172 3053 
L 1172 1153 
Q 1172 725 1289 603 
Q 1406 481 1766 481 
L 2356 481 
L 2356 0 
L 1766 0 
Q 1100 0 847 248 
Q 594 497 594 1153 
L 594 3053 
L 172 3053 
L 172 3500 
L 594 3500 
L 594 4494 
L 1172 4494 
z
" transform="scale(0.015625)"/>
      </defs>
      <use xlink:href="#DejaVuSans-54"/>
      <use xlink:href="#DejaVuSans-6f" x="44.083984"/>
      <use xlink:href="#DejaVuSans-6b" x="105.265625"/>
      <use xlink:href="#DejaVuSans-65" x="159.550781"/>
      <use xlink:href="#DejaVuSans-6e" x="221.074219"/>
      <use xlink:href="#DejaVuSans-20" x="284.453125"/>
      <use xlink:href="#DejaVuSans-50" x="316.240234"/>
      <use xlink:href="#DejaVuSans-6f" x="372.917969"/>
      <use xlink:href="#DejaVuSans-73" x="434.099609"/>
      <use xlink:href="#DejaVuSans-69" x="486.199219"/>
      <use xlink:href="#DejaVuSans-74" x="513.982422"/>
      <use xlink:href="#DejaVuSans-69" x="553.191406"/>
      <use xlink:href="#DejaVuSans-6f" x="580.974609"/>
      <use xlink:href="#DejaVuSans-6e" x="642.15625"/>
     </g>
    </g>
   </g>
   <g id="matplotlib.axis_2">
    <g id="ytick_1">
     <g id="line2d_27">
      <path d="M 58.441875 337.729013 
L 616.441875 337.729013 
" clip-path="url(#p665bf3038d)" style="fill: none; stroke-dasharray: 1.85,0.8; stroke-dashoffset: 0; stroke: #d3d3d3; stroke-opacity: 0.4; stroke-width: 0.5"/>
     </g>
     <g id="line2d_28">
      <defs>
       <path id="m9cb0e334a9" d="M 0 0 
L -3.5 0 
" style="stroke: #000000; stroke-width: 0.8"/>
      </defs>
      <g>
       <use xlink:href="#m9cb0e334a9" x="58.441875" y="337.729013" style="stroke: #000000; stroke-width: 0.8"/>
      </g>
     </g>
     <g id="text_11">
      <!-- 0.370 -->
      <g transform="translate(22.81375 341.528231) scale(0.1 -0.1)">
       <defs>
        <path id="DejaVuSans-2e" d="M 684 794 
L 1344 794 
L 1344 0 
L 684 0 
L 684 794 
z
" transform="scale(0.015625)"/>
        <path id="DejaVuSans-37" d="M 525 4666 
L 3525 4666 
L 3525 4397 
L 1831 0 
L 1172 0 
L 2766 4134 
L 525 4134 
L 525 4666 
z
" transform="scale(0.015625)"/>
       </defs>
       <use xlink:href="#DejaVuSans-30"/>
       <use xlink:href="#DejaVuSans-2e" x="63.623047"/>
       <use xlink:href="#DejaVuSans-33" x="95.410156"/>
       <use xlink:href="#DejaVuSans-37" x="159.033203"/>
       <use xlink:href="#DejaVuSans-30" x="222.65625"/>
      </g>
     </g>
    </g>
    <g id="ytick_2">
     <g id="line2d_29">
      <path d="M 58.441875 296.844533 
L 616.441875 296.844533 
" clip-path="url(#p665bf3038d)" style="fill: none; stroke-dasharray: 1.85,0.8; stroke-dashoffset: 0; stroke: #d3d3d3; stroke-opacity: 0.4; stroke-width: 0.5"/>
     </g>
     <g id="line2d_30">
      <g>
       <use xlink:href="#m9cb0e334a9" x="58.441875" y="296.844533" style="stroke: #000000; stroke-width: 0.8"/>
      </g>
     </g>
     <g id="text_12">
      <!-- 0.372 -->
      <g transform="translate(22.81375 300.643751) scale(0.1 -0.1)">
       <use xlink:href="#DejaVuSans-30"/>
       <use xlink:href="#DejaVuSans-2e" x="63.623047"/>
       <use xlink:href="#DejaVuSans-33" x="95.410156"/>
       <use xlink:href="#DejaVuSans-37" x="159.033203"/>
       <use xlink:href="#DejaVuSans-32" x="222.65625"/>
      </g>
     </g>
    </g>
    <g id="ytick_3">
     <g id="line2d_31">
      <path d="M 58.441875 255.960053 
L 616.441875 255.960053 
" clip-path="url(#p665bf3038d)" style="fill: none; stroke-dasharray: 1.85,0.8; stroke-dashoffset: 0; stroke: #d3d3d3; stroke-opacity: 0.4; stroke-width: 0.5"/>
     </g>
     <g id="line2d_32">
      <g>
       <use xlink:href="#m9cb0e334a9" x="58.441875" y="255.960053" style="stroke: #000000; stroke-width: 0.8"/>
      </g>
     </g>
     <g id="text_13">
      <!-- 0.374 -->
      <g transform="translate(22.81375 259.759271) scale(0.1 -0.1)">
       <use xlink:href="#DejaVuSans-30"/>
       <use xlink:href="#DejaVuSans-2e" x="63.623047"/>
       <use xlink:href="#DejaVuSans-33" x="95.410156"/>
       <use xlink:href="#DejaVuSans-37" x="159.033203"/>
       <use xlink:href="#DejaVuSans-34" x="222.65625"/>
      </g>
     </g>
    </g>
    <g id="ytick_4">
     <g id="line2d_33">
      <path d="M 58.441875 215.075573 
L 616.441875 215.075573 
" clip-path="url(#p665bf3038d)" style="fill: none; stroke-dasharray: 1.85,0.8; stroke-dashoffset: 0; stroke: #d3d3d3; stroke-opacity: 0.4; stroke-width: 0.5"/>
     </g>
     <g id="line2d_34">
      <g>
       <use xlink:href="#m9cb0e334a9" x="58.441875" y="215.075573" style="stroke: #000000; stroke-width: 0.8"/>
      </g>
     </g>
     <g id="text_14">
      <!-- 0.376 -->
      <g transform="translate(22.81375 218.874791) scale(0.1 -0.1)">
       <use xlink:href="#DejaVuSans-30"/>
       <use xlink:href="#DejaVuSans-2e" x="63.623047"/>
       <use xlink:href="#DejaVuSans-33" x="95.410156"/>
       <use xlink:href="#DejaVuSans-37" x="159.033203"/>
       <use xlink:href="#DejaVuSans-36" x="222.65625"/>
      </g>
     </g>
    </g>
    <g id="ytick_5">
     <g id="line2d_35">
      <path d="M 58.441875 174.191093 
L 616.441875 174.191093 
" clip-path="url(#p665bf3038d)" style="fill: none; stroke-dasharray: 1.85,0.8; stroke-dashoffset: 0; stroke: #d3d3d3; stroke-opacity: 0.4; stroke-width: 0.5"/>
     </g>
     <g id="line2d_36">
      <g>
       <use xlink:href="#m9cb0e334a9" x="58.441875" y="174.191093" style="stroke: #000000; stroke-width: 0.8"/>
      </g>
     </g>
     <g id="text_15">
      <!-- 0.378 -->
      <g transform="translate(22.81375 177.990311) scale(0.1 -0.1)">
       <use xlink:href="#DejaVuSans-30"/>
       <use xlink:href="#DejaVuSans-2e" x="63.623047"/>
       <use xlink:href="#DejaVuSans-33" x="95.410156"/>
       <use xlink:href="#DejaVuSans-37" x="159.033203"/>
       <use xlink:href="#DejaVuSans-38" x="222.65625"/>
      </g>
     </g>
    </g>
    <g id="ytick_6">
     <g id="line2d_37">
      <path d="M 58.441875 133.306613 
L 616.441875 133.306613 
" clip-path="url(#p665bf3038d)" style="fill: none; stroke-dasharray: 1.85,0.8; stroke-dashoffset: 0; stroke: #d3d3d3; stroke-opacity: 0.4; stroke-width: 0.5"/>
     </g>
     <g id="line2d_38">
      <g>
       <use xlink:href="#m9cb0e334a9" x="58.441875" y="133.306613" style="stroke: #000000; stroke-width: 0.8"/>
      </g>
     </g>
     <g id="text_16">
      <!-- 0.380 -->
      <g transform="translate(22.81375 137.105831) scale(0.1 -0.1)">
       <use xlink:href="#DejaVuSans-30"/>
       <use xlink:href="#DejaVuSans-2e" x="63.623047"/>
       <use xlink:href="#DejaVuSans-33" x="95.410156"/>
       <use xlink:href="#DejaVuSans-38" x="159.033203"/>
       <use xlink:href="#DejaVuSans-30" x="222.65625"/>
      </g>
     </g>
    </g>
    <g id="ytick_7">
     <g id="line2d_39">
      <path d="M 58.441875 92.422132 
L 616.441875 92.422132 
" clip-path="url(#p665bf3038d)" style="fill: none; stroke-dasharray: 1.85,0.8; stroke-dashoffset: 0; stroke: #d3d3d3; stroke-opacity: 0.4; stroke-width: 0.5"/>
     </g>
     <g id="line2d_40">
      <g>
       <use xlink:href="#m9cb0e334a9" x="58.441875" y="92.422132" style="stroke: #000000; stroke-width: 0.8"/>
      </g>
     </g>
     <g id="text_17">
      <!-- 0.382 -->
      <g transform="translate(22.81375 96.221351) scale(0.1 -0.1)">
       <use xlink:href="#DejaVuSans-30"/>
       <use xlink:href="#DejaVuSans-2e" x="63.623047"/>
       <use xlink:href="#DejaVuSans-33" x="95.410156"/>
       <use xlink:href="#DejaVuSans-38" x="159.033203"/>
       <use xlink:href="#DejaVuSans-32" x="222.65625"/>
      </g>
     </g>
    </g>
    <g id="ytick_8">
     <g id="line2d_41">
      <path d="M 58.441875 51.537653 
L 616.441875 51.537653 
" clip-path="url(#p665bf3038d)" style="fill: none; stroke-dasharray: 1.85,0.8; stroke-dashoffset: 0; stroke: #d3d3d3; stroke-opacity: 0.4; stroke-width: 0.5"/>
     </g>
     <g id="line2d_42">
      <g>
       <use xlink:href="#m9cb0e334a9" x="58.441875" y="51.537653" style="stroke: #000000; stroke-width: 0.8"/>
      </g>
     </g>
     <g id="text_18">
      <!-- 0.384 -->
      <g transform="translate(22.81375 55.336871) scale(0.1 -0.1)">
       <use xlink:href="#DejaVuSans-30"/>
       <use xlink:href="#DejaVuSans-2e" x="63.623047"/>
       <use xlink:href="#DejaVuSans-33" x="95.410156"/>
       <use xlink:href="#DejaVuSans-38" x="159.033203"/>
       <use xlink:href="#DejaVuSans-34" x="222.65625"/>
      </g>
     </g>
    </g>
    <g id="text_19">
     <!-- Average Accuracy -->
     <g transform="translate(16.318125 244.097812) rotate(-90) scale(0.12 -0.12)">
      <defs>
       <path id="DejaVuSans-41" d="M 2188 4044 
L 1331 1722 
L 3047 1722 
L 2188 4044 
z
M 1831 4666 
L 2547 4666 
L 4325 0 
L 3669 0 
L 3244 1197 
L 1141 1197 
L 716 0 
L 50 0 
L 1831 4666 
z
" transform="scale(0.015625)"/>
       <path id="DejaVuSans-76" d="M 191 3500 
L 800 3500 
L 1894 563 
L 2988 3500 
L 3597 3500 
L 2284 0 
L 1503 0 
L 191 3500 
z
" transform="scale(0.015625)"/>
       <path id="DejaVuSans-72" d="M 2631 2963 
Q 2534 3019 2420 3045 
Q 2306 3072 2169 3072 
Q 1681 3072 1420 2755 
Q 1159 2438 1159 1844 
L 1159 0 
L 581 0 
L 581 3500 
L 1159 3500 
L 1159 2956 
Q 1341 3275 1631 3429 
Q 1922 3584 2338 3584 
Q 2397 3584 2469 3576 
Q 2541 3569 2628 3553 
L 2631 2963 
z
" transform="scale(0.015625)"/>
       <path id="DejaVuSans-61" d="M 2194 1759 
Q 1497 1759 1228 1600 
Q 959 1441 959 1056 
Q 959 750 1161 570 
Q 1363 391 1709 391 
Q 2188 391 2477 730 
Q 2766 1069 2766 1631 
L 2766 1759 
L 2194 1759 
z
M 3341 1997 
L 3341 0 
L 2766 0 
L 2766 531 
Q 2569 213 2275 61 
Q 1981 -91 1556 -91 
Q 1019 -91 701 211 
Q 384 513 384 1019 
Q 384 1609 779 1909 
Q 1175 2209 1959 2209 
L 2766 2209 
L 2766 2266 
Q 2766 2663 2505 2880 
Q 2244 3097 1772 3097 
Q 1472 3097 1187 3025 
Q 903 2953 641 2809 
L 641 3341 
Q 956 3463 1253 3523 
Q 1550 3584 1831 3584 
Q 2591 3584 2966 3190 
Q 3341 2797 3341 1997 
z
" transform="scale(0.015625)"/>
       <path id="DejaVuSans-67" d="M 2906 1791 
Q 2906 2416 2648 2759 
Q 2391 3103 1925 3103 
Q 1463 3103 1205 2759 
Q 947 2416 947 1791 
Q 947 1169 1205 825 
Q 1463 481 1925 481 
Q 2391 481 2648 825 
Q 2906 1169 2906 1791 
z
M 3481 434 
Q 3481 -459 3084 -895 
Q 2688 -1331 1869 -1331 
Q 1566 -1331 1297 -1286 
Q 1028 -1241 775 -1147 
L 775 -588 
Q 1028 -725 1275 -790 
Q 1522 -856 1778 -856 
Q 2344 -856 2625 -561 
Q 2906 -266 2906 331 
L 2906 616 
Q 2728 306 2450 153 
Q 2172 0 1784 0 
Q 1141 0 747 490 
Q 353 981 353 1791 
Q 353 2603 747 3093 
Q 1141 3584 1784 3584 
Q 2172 3584 2450 3431 
Q 2728 3278 2906 2969 
L 2906 3500 
L 3481 3500 
L 3481 434 
z
" transform="scale(0.015625)"/>
       <path id="DejaVuSans-63" d="M 3122 3366 
L 3122 2828 
Q 2878 2963 2633 3030 
Q 2388 3097 2138 3097 
Q 1578 3097 1268 2742 
Q 959 2388 959 1747 
Q 959 1106 1268 751 
Q 1578 397 2138 397 
Q 2388 397 2633 464 
Q 2878 531 3122 666 
L 3122 134 
Q 2881 22 2623 -34 
Q 2366 -91 2075 -91 
Q 1284 -91 818 406 
Q 353 903 353 1747 
Q 353 2603 823 3093 
Q 1294 3584 2113 3584 
Q 2378 3584 2631 3529 
Q 2884 3475 3122 3366 
z
" transform="scale(0.015625)"/>
       <path id="DejaVuSans-75" d="M 544 1381 
L 544 3500 
L 1119 3500 
L 1119 1403 
Q 1119 906 1312 657 
Q 1506 409 1894 409 
Q 2359 409 2629 706 
Q 2900 1003 2900 1516 
L 2900 3500 
L 3475 3500 
L 3475 0 
L 2900 0 
L 2900 538 
Q 2691 219 2414 64 
Q 2138 -91 1772 -91 
Q 1169 -91 856 284 
Q 544 659 544 1381 
z
M 1991 3584 
L 1991 3584 
z
" transform="scale(0.015625)"/>
       <path id="DejaVuSans-79" d="M 2059 -325 
Q 1816 -950 1584 -1140 
Q 1353 -1331 966 -1331 
L 506 -1331 
L 506 -850 
L 844 -850 
Q 1081 -850 1212 -737 
Q 1344 -625 1503 -206 
L 1606 56 
L 191 3500 
L 800 3500 
L 1894 763 
L 2988 3500 
L 3597 3500 
L 2059 -325 
z
" transform="scale(0.015625)"/>
      </defs>
      <use xlink:href="#DejaVuSans-41"/>
      <use xlink:href="#DejaVuSans-76" x="62.533203"/>
      <use xlink:href="#DejaVuSans-65" x="121.712891"/>
      <use xlink:href="#DejaVuSans-72" x="183.236328"/>
      <use xlink:href="#DejaVuSans-61" x="224.349609"/>
      <use xlink:href="#DejaVuSans-67" x="285.628906"/>
      <use xlink:href="#DejaVuSans-65" x="349.105469"/>
      <use xlink:href="#DejaVuSans-20" x="410.628906"/>
      <use xlink:href="#DejaVuSans-41" x="442.416016"/>
      <use xlink:href="#DejaVuSans-63" x="509.074219"/>
      <use xlink:href="#DejaVuSans-63" x="564.054688"/>
      <use xlink:href="#DejaVuSans-75" x="619.035156"/>
      <use xlink:href="#DejaVuSans-72" x="682.414062"/>
      <use xlink:href="#DejaVuSans-61" x="723.527344"/>
      <use xlink:href="#DejaVuSans-63" x="784.806641"/>
      <use xlink:href="#DejaVuSans-79" x="839.787109"/>
     </g>
    </g>
   </g>
   <g id="line2d_43">
    <path d="M 58.441875 38.957812 
L 60.588029 78.269813 
L 62.734183 65.165812 
L 64.880337 58.613812 
L 67.02649 54.682613 
L 69.172644 78.269813 
L 71.318798 83.885812 
L 73.464952 117.581813 
L 75.611106 143.789813 
L 77.75726 188.343412 
L 79.903413 189.058176 
L 82.049567 189.653812 
L 84.195721 220.397813 
L 86.341875 246.749812 
L 88.488029 248.621813 
L 90.634183 250.259813 
L 92.780337 251.705107 
L 94.92649 248.621813 
L 97.072644 258.277391 
L 99.218798 270.898612 
L 101.364952 304.781813 
L 103.511106 310.567994 
L 105.65726 319.269465 
L 107.803413 327.245813 
L 109.949567 331.439093 
L 112.095721 341.357813 
L 114.241875 335.981813 
L 116.388029 330.989813 
L 118.534183 331.764433 
L 120.680337 329.866612 
L 122.82649 325.554974 
L 124.972644 323.969813 
L 127.118798 317.715631 
L 129.264952 314.141813 
L 131.411106 306.279413 
L 135.703413 300.329488 
L 137.849567 297.589391 
L 139.995721 292.973813 
L 146.434183 291.677813 
L 148.580337 294.942929 
L 150.72649 290.911994 
L 155.018798 286.794334 
L 159.311106 279.743812 
L 161.45726 274.829813 
L 163.603413 271.684853 
L 165.749567 270.204871 
L 167.895721 267.269812 
L 170.041875 265.928982 
L 172.188029 263.181813 
L 174.334183 261.964067 
L 176.480337 262.193813 
L 178.62649 259.65676 
L 180.772644 259.918364 
L 182.918798 264.168931 
L 185.064952 266.967412 
L 187.211106 267.096304 
L 189.35726 268.489167 
L 191.503413 264.845813 
L 193.649567 263.773313 
L 195.795721 266.362613 
L 197.941875 266.490903 
L 200.088029 265.441872 
L 202.234183 265.57993 
L 204.380337 263.43503 
L 206.52649 263.597813 
L 208.672644 262.648629 
L 210.818798 263.909812 
L 212.964952 262.98236 
L 215.111106 261.017488 
L 217.25726 265.394933 
L 221.549567 265.639994 
L 225.841875 261.891686 
L 230.134183 260.269813 
L 232.280337 260.447373 
L 236.572644 258.917812 
L 238.718798 257.255036 
L 243.011106 255.851606 
L 245.15726 254.280358 
L 247.303413 253.627835 
L 249.449567 251.242613 
L 251.595721 249.773813 
L 253.741875 250.900769 
L 260.180337 249.17356 
L 262.32649 250.259812 
L 264.472644 248.891998 
L 266.618798 246.749812 
L 268.764952 245.445085 
L 270.911106 244.952693 
L 277.349567 241.242861 
L 279.495721 239.297813 
L 285.934183 238.089626 
L 288.080337 236.245812 
L 290.22649 236.599794 
L 294.518798 234.455326 
L 298.811106 230.995193 
L 300.95726 231.379707 
L 303.103413 229.706473 
L 307.395721 229.133813 
L 309.541875 229.521067 
L 311.688029 231.223224 
L 313.834183 231.586613 
L 315.980337 229.994639 
L 318.12649 229.073222 
L 320.272644 229.445227 
L 322.418798 227.909038 
L 324.564952 227.026421 
L 326.711106 227.405813 
L 328.85726 226.541057 
L 331.003413 226.918313 
L 333.149567 226.680231 
L 335.295721 225.236213 
L 339.588029 224.796358 
L 341.734183 225.172549 
L 343.880337 224.95638 
L 346.02649 223.578613 
L 348.172644 223.95546 
L 350.318798 225.474601 
L 352.464952 227.541465 
L 354.611106 227.881669 
L 358.903413 227.432366 
L 361.049567 228.319841 
L 365.341875 227.873812 
L 369.634183 226.362963 
L 371.780337 225.088098 
L 373.92649 224.361704 
L 378.218798 223.986293 
L 380.364952 223.281627 
L 382.511106 222.06897 
L 384.65726 221.89993 
L 386.803413 220.711994 
L 388.949567 220.55389 
L 391.095721 219.893813 
L 393.241875 220.744513 
L 395.388029 220.091585 
L 397.534183 219.94136 
L 399.680337 220.284413 
L 401.82649 221.111552 
L 403.972644 219.987146 
L 406.118798 220.323604 
L 408.264952 220.176544 
L 410.411106 220.507776 
L 412.55726 221.308656 
L 416.849567 221.009812 
L 418.995721 219.932582 
L 421.141875 219.330518 
L 423.288029 218.275707 
L 427.580337 218.929512 
L 434.018798 218.542176 
L 436.164952 217.527575 
L 438.311106 217.40779 
L 442.603413 216.298613 
L 444.749567 215.318829 
L 446.895721 215.213813 
L 449.041875 215.969222 
L 451.188029 216.289117 
L 455.480337 214.382329 
L 457.62649 214.285128 
L 459.772644 213.770749 
L 461.918798 214.093813 
L 466.211106 213.906504 
L 468.35726 214.633312 
L 474.795721 214.349813 
L 476.941875 214.658384 
L 479.088029 214.165609 
L 481.234183 214.074903 
L 483.380337 213.590014 
L 485.52649 213.503093 
L 487.672644 213.025872 
L 489.818798 212.164149 
L 494.111106 212.007695 
L 496.25726 211.547081 
L 498.403413 211.472609 
L 502.695721 210.569813 
L 504.841875 210.877277 
L 509.134183 209.992959 
L 511.280337 209.18619 
L 513.42649 208.756122 
L 515.572644 208.697476 
L 517.718798 207.907989 
L 519.864952 207.489812 
L 522.011106 206.713167 
L 524.15726 206.664968 
L 526.303413 206.258196 
L 528.449567 206.212503 
L 530.595721 205.455695 
L 532.741875 205.059867 
L 537.034183 203.576813 
L 541.32649 202.815795 
L 543.472644 202.786676 
L 545.618798 202.41297 
L 547.764952 202.729201 
L 549.911106 202.358995 
L 554.203413 202.983744 
L 558.495721 202.253813 
L 560.641875 201.558936 
L 569.22649 201.469344 
L 571.372644 200.792213 
L 573.518798 200.446941 
L 577.811106 200.412035 
L 579.95726 200.717026 
L 582.103413 200.056784 
L 592.834183 198.407285 
L 594.980337 197.772028 
L 597.12649 197.453813 
L 599.272644 197.44888 
L 601.418798 196.824899 
L 603.564952 196.822471 
L 605.711106 196.205813 
L 607.85726 196.205813 
L 614.295721 195.298613 
L 614.295721 195.298613 
" clip-path="url(#p665bf3038d)" style="fill: none; stroke: #ef4f4f; stroke-width: 1.5; stroke-linecap: square"/>
   </g>
   <g id="line2d_44">
    <path d="M 58.441875 38.957812 
L 60.588029 156.893813 
L 62.734183 117.581812 
L 64.880337 97.925813 
L 67.02649 133.306613 
L 69.172644 117.581813 
L 71.318798 106.349813 
L 73.464952 107.753813 
L 75.611106 126.317813 
L 77.75726 125.444212 
L 79.903413 139.024722 
L 82.049567 163.445813 
L 84.195721 165.965813 
L 86.341875 179.357812 
L 88.488029 169.997813 
L 90.634183 171.635813 
L 92.780337 177.706048 
L 97.072644 179.653391 
L 99.218798 188.343412 
L 101.364952 184.973813 
L 103.511106 178.336722 
L 105.65726 185.950508 
L 107.803413 183.101813 
L 109.949567 189.915893 
L 112.095721 193.181813 
L 114.241875 193.293813 
L 116.388029 190.589813 
L 118.534183 185.361123 
L 120.680337 180.481013 
L 122.82649 178.452006 
L 124.972644 179.006812 
L 127.118798 174.762903 
L 129.264952 175.393577 
L 131.411106 173.741813 
L 135.703413 166.456191 
L 139.995721 163.949813 
L 142.141875 166.721813 
L 144.288029 167.440934 
L 146.434183 166.253813 
L 150.72649 160.467631 
L 152.872644 159.514613 
L 157.164952 154.384536 
L 159.311106 155.255812 
L 165.749567 153.039695 
L 170.041875 148.734718 
L 174.334183 147.601885 
L 176.480337 145.661813 
L 180.772644 144.693537 
L 182.918798 142.901406 
L 185.064952 143.789812 
L 187.211106 143.360173 
L 189.35726 141.676264 
L 191.503413 142.541813 
L 195.795721 141.773813 
L 197.941875 142.59854 
L 200.088029 142.225156 
L 204.380337 139.231899 
L 206.52649 138.922613 
L 208.672644 140.836798 
L 210.818798 141.605812 
L 212.964952 140.199676 
L 217.25726 139.596533 
L 219.403413 138.272339 
L 223.695721 137.741812 
L 225.841875 136.491382 
L 227.988029 136.255013 
L 230.134183 136.995146 
L 236.572644 133.493812 
L 240.864952 133.123766 
L 243.011106 133.848847 
L 245.15726 135.450903 
L 249.449567 135.053812 
L 251.595721 133.997813 
L 253.741875 133.819378 
L 258.034183 131.801047 
L 260.180337 131.65137 
L 262.32649 132.323813 
L 264.472644 133.792947 
L 266.618798 136.034384 
L 268.764952 137.436358 
L 275.203413 139.164871 
L 277.349567 138.955327 
L 279.495721 137.993813 
L 283.788029 139.092152 
L 288.080337 138.693812 
L 290.22649 139.942767 
L 292.372644 139.739485 
L 296.664952 142.151812 
L 300.95726 141.72076 
L 303.103413 140.827169 
L 305.249567 141.304571 
L 307.395721 140.429813 
L 309.541875 140.236185 
L 311.688029 139.385107 
L 313.834183 139.203413 
L 315.980337 140.974077 
L 318.12649 141.426796 
L 322.418798 143.578458 
L 324.564952 143.370485 
L 331.003413 140.923313 
L 333.149567 142.570836 
L 337.441875 142.189324 
L 346.02649 143.789813 
L 348.172644 143.597107 
L 350.318798 143.981112 
L 352.464952 145.49903 
L 354.611106 145.298187 
L 358.903413 146.020281 
L 361.049567 145.82001 
L 365.341875 146.519812 
L 369.634183 146.123402 
L 371.780337 145.394384 
L 373.92649 145.206461 
L 376.072644 144.493383 
L 378.218798 145.362292 
L 380.364952 144.657627 
L 382.511106 144.99676 
L 386.803413 143.619631 
L 388.949567 144.466148 
L 391.095721 144.293813 
L 393.241875 143.622883 
L 395.388029 143.458066 
L 397.534183 145.273284 
L 399.680337 145.100212 
L 401.82649 144.440943 
L 403.972644 144.275146 
L 406.118798 143.629027 
L 408.264952 144.429032 
L 410.411106 143.789812 
L 412.55726 143.631933 
L 416.849567 142.385812 
L 418.995721 142.239043 
L 421.141875 143.018989 
L 425.434183 142.723208 
L 429.72649 143.33795 
L 431.872644 144.987893 
L 434.018798 145.278903 
L 436.164952 146.010829 
L 440.45726 145.693187 
L 444.749567 146.251337 
L 446.895721 147.389813 
L 449.041875 147.656567 
L 455.480337 147.17149 
L 457.62649 147.854155 
L 459.772644 148.94777 
L 461.918798 148.781812 
L 464.064952 149.445223 
L 466.211106 149.278399 
L 468.35726 148.703812 
L 470.503413 148.949937 
L 474.795721 150.241012 
L 476.941875 149.673241 
L 479.088029 149.51034 
L 481.234183 149.746176 
L 483.380337 150.769833 
L 485.52649 150.210773 
L 487.672644 150.439604 
L 494.111106 149.956401 
L 496.25726 149.414944 
L 498.403413 149.260414 
L 500.549567 149.487204 
L 504.841875 150.686655 
L 506.988029 151.652213 
L 509.134183 152.235993 
L 511.280337 152.443397 
L 513.42649 152.279728 
L 515.572644 153.219794 
L 517.718798 153.419729 
L 519.864952 153.981812 
L 522.011106 154.901038 
L 524.15726 155.09051 
L 526.303413 156.355292 
L 530.595721 156.71593 
L 532.741875 157.247975 
L 534.888029 158.127821 
L 537.034183 159.701813 
L 539.180337 160.912373 
L 545.618798 161.37676 
L 547.764952 161.185516 
L 549.911106 161.337778 
L 552.05726 160.807994 
L 554.203413 160.960571 
L 558.495721 161.933813 
L 560.641875 162.079651 
L 562.788029 161.891101 
L 564.934183 162.035888 
L 567.080337 162.509812 
L 569.22649 162.321829 
L 571.372644 161.807813 
L 573.518798 161.624302 
L 575.664952 161.117416 
L 577.811106 161.261812 
L 584.249567 159.7703 
L 586.395721 159.917812 
L 588.541875 160.6982 
L 592.834183 161.611253 
L 594.980337 161.122593 
L 599.272644 160.778397 
L 601.418798 161.227419 
L 607.85726 161.635727 
L 610.003413 162.074464 
L 612.149567 161.902677 
L 614.295721 162.034613 
L 614.295721 162.034613 
" clip-path="url(#p665bf3038d)" style="fill: none; stroke-dasharray: 5.55,2.4; stroke-dashoffset: 0; stroke: #7e5cad; stroke-width: 1.5"/>
   </g>
   <g id="patch_3">
    <path d="M 58.441875 356.477813 
L 58.441875 23.837812 
" style="fill: none; stroke: #000000; stroke-width: 0.8; stroke-linejoin: miter; stroke-linecap: square"/>
   </g>
   <g id="patch_4">
    <path d="M 58.441875 356.477812 
L 616.441875 356.477812 
" style="fill: none; stroke: #000000; stroke-width: 0.8; stroke-linejoin: miter; stroke-linecap: square"/>
   </g>
   <g id="text_20">
    <!-- Token-wise Accuracy Comparison (layer_12) -->
    <g transform="translate(183.404687 17.837812) scale(0.14 -0.14)">
     <defs>
      <path id="DejaVuSans-2d" d="M 313 2009 
L 1997 2009 
L 1997 1497 
L 313 1497 
L 313 2009 
z
" transform="scale(0.015625)"/>
      <path id="DejaVuSans-77" d="M 269 3500 
L 844 3500 
L 1563 769 
L 2278 3500 
L 2956 3500 
L 3675 769 
L 4391 3500 
L 4966 3500 
L 4050 0 
L 3372 0 
L 2619 2869 
L 1863 0 
L 1184 0 
L 269 3500 
z
" transform="scale(0.015625)"/>
      <path id="DejaVuSans-43" d="M 4122 4306 
L 4122 3641 
Q 3803 3938 3442 4084 
Q 3081 4231 2675 4231 
Q 1875 4231 1450 3742 
Q 1025 3253 1025 2328 
Q 1025 1406 1450 917 
Q 1875 428 2675 428 
Q 3081 428 3442 575 
Q 3803 722 4122 1019 
L 4122 359 
Q 3791 134 3420 21 
Q 3050 -91 2638 -91 
Q 1578 -91 968 557 
Q 359 1206 359 2328 
Q 359 3453 968 4101 
Q 1578 4750 2638 4750 
Q 3056 4750 3426 4639 
Q 3797 4528 4122 4306 
z
" transform="scale(0.015625)"/>
      <path id="DejaVuSans-6d" d="M 3328 2828 
Q 3544 3216 3844 3400 
Q 4144 3584 4550 3584 
Q 5097 3584 5394 3201 
Q 5691 2819 5691 2113 
L 5691 0 
L 5113 0 
L 5113 2094 
Q 5113 2597 4934 2840 
Q 4756 3084 4391 3084 
Q 3944 3084 3684 2787 
Q 3425 2491 3425 1978 
L 3425 0 
L 2847 0 
L 2847 2094 
Q 2847 2600 2669 2842 
Q 2491 3084 2119 3084 
Q 1678 3084 1418 2786 
Q 1159 2488 1159 1978 
L 1159 0 
L 581 0 
L 581 3500 
L 1159 3500 
L 1159 2956 
Q 1356 3278 1631 3431 
Q 1906 3584 2284 3584 
Q 2666 3584 2933 3390 
Q 3200 3197 3328 2828 
z
" transform="scale(0.015625)"/>
      <path id="DejaVuSans-70" d="M 1159 525 
L 1159 -1331 
L 581 -1331 
L 581 3500 
L 1159 3500 
L 1159 2969 
Q 1341 3281 1617 3432 
Q 1894 3584 2278 3584 
Q 2916 3584 3314 3078 
Q 3713 2572 3713 1747 
Q 3713 922 3314 415 
Q 2916 -91 2278 -91 
Q 1894 -91 1617 61 
Q 1341 213 1159 525 
z
M 3116 1747 
Q 3116 2381 2855 2742 
Q 2594 3103 2138 3103 
Q 1681 3103 1420 2742 
Q 1159 2381 1159 1747 
Q 1159 1113 1420 752 
Q 1681 391 2138 391 
Q 2594 391 2855 752 
Q 3116 1113 3116 1747 
z
" transform="scale(0.015625)"/>
      <path id="DejaVuSans-28" d="M 1984 4856 
Q 1566 4138 1362 3434 
Q 1159 2731 1159 2009 
Q 1159 1288 1364 580 
Q 1569 -128 1984 -844 
L 1484 -844 
Q 1016 -109 783 600 
Q 550 1309 550 2009 
Q 550 2706 781 3412 
Q 1013 4119 1484 4856 
L 1984 4856 
z
" transform="scale(0.015625)"/>
      <path id="DejaVuSans-6c" d="M 603 4863 
L 1178 4863 
L 1178 0 
L 603 0 
L 603 4863 
z
" transform="scale(0.015625)"/>
      <path id="DejaVuSans-5f" d="M 3263 -1063 
L 3263 -1509 
L -63 -1509 
L -63 -1063 
L 3263 -1063 
z
" transform="scale(0.015625)"/>
      <path id="DejaVuSans-29" d="M 513 4856 
L 1013 4856 
Q 1481 4119 1714 3412 
Q 1947 2706 1947 2009 
Q 1947 1309 1714 600 
Q 1481 -109 1013 -844 
L 513 -844 
Q 928 -128 1133 580 
Q 1338 1288 1338 2009 
Q 1338 2731 1133 3434 
Q 928 4138 513 4856 
z
" transform="scale(0.015625)"/>
     </defs>
     <use xlink:href="#DejaVuSans-54"/>
     <use xlink:href="#DejaVuSans-6f" x="44.083984"/>
     <use xlink:href="#DejaVuSans-6b" x="105.265625"/>
     <use xlink:href="#DejaVuSans-65" x="159.550781"/>
     <use xlink:href="#DejaVuSans-6e" x="221.074219"/>
     <use xlink:href="#DejaVuSans-2d" x="284.453125"/>
     <use xlink:href="#DejaVuSans-77" x="320.537109"/>
     <use xlink:href="#DejaVuSans-69" x="402.324219"/>
     <use xlink:href="#DejaVuSans-73" x="430.107422"/>
     <use xlink:href="#DejaVuSans-65" x="482.207031"/>
     <use xlink:href="#DejaVuSans-20" x="543.730469"/>
     <use xlink:href="#DejaVuSans-41" x="575.517578"/>
     <use xlink:href="#DejaVuSans-63" x="642.175781"/>
     <use xlink:href="#DejaVuSans-63" x="697.15625"/>
     <use xlink:href="#DejaVuSans-75" x="752.136719"/>
     <use xlink:href="#DejaVuSans-72" x="815.515625"/>
     <use xlink:href="#DejaVuSans-61" x="856.628906"/>
     <use xlink:href="#DejaVuSans-63" x="917.908203"/>
     <use xlink:href="#DejaVuSans-79" x="972.888672"/>
     <use xlink:href="#DejaVuSans-20" x="1032.068359"/>
     <use xlink:href="#DejaVuSans-43" x="1063.855469"/>
     <use xlink:href="#DejaVuSans-6f" x="1133.679688"/>
     <use xlink:href="#DejaVuSans-6d" x="1194.861328"/>
     <use xlink:href="#DejaVuSans-70" x="1292.273438"/>
     <use xlink:href="#DejaVuSans-61" x="1355.75"/>
     <use xlink:href="#DejaVuSans-72" x="1417.029297"/>
     <use xlink:href="#DejaVuSans-69" x="1458.142578"/>
     <use xlink:href="#DejaVuSans-73" x="1485.925781"/>
     <use xlink:href="#DejaVuSans-6f" x="1538.025391"/>
     <use xlink:href="#DejaVuSans-6e" x="1599.207031"/>
     <use xlink:href="#DejaVuSans-20" x="1662.585938"/>
     <use xlink:href="#DejaVuSans-28" x="1694.373047"/>
     <use xlink:href="#DejaVuSans-6c" x="1733.386719"/>
     <use xlink:href="#DejaVuSans-61" x="1761.169922"/>
     <use xlink:href="#DejaVuSans-79" x="1822.449219"/>
     <use xlink:href="#DejaVuSans-65" x="1881.628906"/>
     <use xlink:href="#DejaVuSans-72" x="1943.152344"/>
     <use xlink:href="#DejaVuSans-5f" x="1984.265625"/>
     <use xlink:href="#DejaVuSans-31" x="2034.265625"/>
     <use xlink:href="#DejaVuSans-32" x="2097.888672"/>
     <use xlink:href="#DejaVuSans-29" x="2161.511719"/>
    </g>
   </g>
   <g id="legend_1">
    <g id="patch_5">
     <path d="M 519.885625 61.194062 
L 609.441875 61.194062 
Q 611.441875 61.194062 611.441875 59.194062 
L 611.441875 30.837812 
Q 611.441875 28.837812 609.441875 28.837812 
L 519.885625 28.837812 
Q 517.885625 28.837812 517.885625 30.837812 
L 517.885625 59.194062 
Q 517.885625 61.194062 519.885625 61.194062 
z
" style="fill: #ffffff; opacity: 0.8; stroke: #cccccc; stroke-linejoin: miter"/>
    </g>
    <g id="line2d_45">
     <path d="M 521.885625 36.93625 
L 531.885625 36.93625 
L 541.885625 36.93625 
" style="fill: none; stroke: #ef4f4f; stroke-width: 1.5; stroke-linecap: square"/>
    </g>
    <g id="text_21">
     <!-- Base Model -->
     <g transform="translate(549.885625 40.43625) scale(0.1 -0.1)">
      <defs>
       <path id="DejaVuSans-42" d="M 1259 2228 
L 1259 519 
L 2272 519 
Q 2781 519 3026 730 
Q 3272 941 3272 1375 
Q 3272 1813 3026 2020 
Q 2781 2228 2272 2228 
L 1259 2228 
z
M 1259 4147 
L 1259 2741 
L 2194 2741 
Q 2656 2741 2882 2914 
Q 3109 3088 3109 3444 
Q 3109 3797 2882 3972 
Q 2656 4147 2194 4147 
L 1259 4147 
z
M 628 4666 
L 2241 4666 
Q 2963 4666 3353 4366 
Q 3744 4066 3744 3513 
Q 3744 3084 3544 2831 
Q 3344 2578 2956 2516 
Q 3422 2416 3680 2098 
Q 3938 1781 3938 1306 
Q 3938 681 3513 340 
Q 3088 0 2303 0 
L 628 0 
L 628 4666 
z
" transform="scale(0.015625)"/>
       <path id="DejaVuSans-4d" d="M 628 4666 
L 1569 4666 
L 2759 1491 
L 3956 4666 
L 4897 4666 
L 4897 0 
L 4281 0 
L 4281 4097 
L 3078 897 
L 2444 897 
L 1241 4097 
L 1241 0 
L 628 0 
L 628 4666 
z
" transform="scale(0.015625)"/>
       <path id="DejaVuSans-64" d="M 2906 2969 
L 2906 4863 
L 3481 4863 
L 3481 0 
L 2906 0 
L 2906 525 
Q 2725 213 2448 61 
Q 2172 -91 1784 -91 
Q 1150 -91 751 415 
Q 353 922 353 1747 
Q 353 2572 751 3078 
Q 1150 3584 1784 3584 
Q 2172 3584 2448 3432 
Q 2725 3281 2906 2969 
z
M 947 1747 
Q 947 1113 1208 752 
Q 1469 391 1925 391 
Q 2381 391 2643 752 
Q 2906 1113 2906 1747 
Q 2906 2381 2643 2742 
Q 2381 3103 1925 3103 
Q 1469 3103 1208 2742 
Q 947 2381 947 1747 
z
" transform="scale(0.015625)"/>
      </defs>
      <use xlink:href="#DejaVuSans-42"/>
      <use xlink:href="#DejaVuSans-61" x="68.603516"/>
      <use xlink:href="#DejaVuSans-73" x="129.882812"/>
      <use xlink:href="#DejaVuSans-65" x="181.982422"/>
      <use xlink:href="#DejaVuSans-20" x="243.505859"/>
      <use xlink:href="#DejaVuSans-4d" x="275.292969"/>
      <use xlink:href="#DejaVuSans-6f" x="361.572266"/>
      <use xlink:href="#DejaVuSans-64" x="422.753906"/>
      <use xlink:href="#DejaVuSans-65" x="486.230469"/>
      <use xlink:href="#DejaVuSans-6c" x="547.753906"/>
     </g>
    </g>
    <g id="line2d_46">
     <path d="M 521.885625 51.614375 
L 531.885625 51.614375 
L 541.885625 51.614375 
" style="fill: none; stroke-dasharray: 5.55,2.4; stroke-dashoffset: 0; stroke: #7e5cad; stroke-width: 1.5"/>
    </g>
    <g id="text_22">
     <!-- ReFT Model -->
     <g transform="translate(549.885625 55.114375) scale(0.1 -0.1)">
      <defs>
       <path id="DejaVuSans-52" d="M 2841 2188 
Q 3044 2119 3236 1894 
Q 3428 1669 3622 1275 
L 4263 0 
L 3584 0 
L 2988 1197 
Q 2756 1666 2539 1819 
Q 2322 1972 1947 1972 
L 1259 1972 
L 1259 0 
L 628 0 
L 628 4666 
L 2053 4666 
Q 2853 4666 3247 4331 
Q 3641 3997 3641 3322 
Q 3641 2881 3436 2590 
Q 3231 2300 2841 2188 
z
M 1259 4147 
L 1259 2491 
L 2053 2491 
Q 2509 2491 2742 2702 
Q 2975 2913 2975 3322 
Q 2975 3731 2742 3939 
Q 2509 4147 2053 4147 
L 1259 4147 
z
" transform="scale(0.015625)"/>
       <path id="DejaVuSans-46" d="M 628 4666 
L 3309 4666 
L 3309 4134 
L 1259 4134 
L 1259 2759 
L 3109 2759 
L 3109 2228 
L 1259 2228 
L 1259 0 
L 628 0 
L 628 4666 
z
" transform="scale(0.015625)"/>
      </defs>
      <use xlink:href="#DejaVuSans-52"/>
      <use xlink:href="#DejaVuSans-65" x="64.982422"/>
      <use xlink:href="#DejaVuSans-46" x="126.505859"/>
      <use xlink:href="#DejaVuSans-54" x="182.275391"/>
      <use xlink:href="#DejaVuSans-20" x="243.359375"/>
      <use xlink:href="#DejaVuSans-4d" x="275.146484"/>
      <use xlink:href="#DejaVuSans-6f" x="361.425781"/>
      <use xlink:href="#DejaVuSans-64" x="422.607422"/>
      <use xlink:href="#DejaVuSans-65" x="486.083984"/>
      <use xlink:href="#DejaVuSans-6c" x="547.607422"/>
     </g>
    </g>
   </g>
  </g>
 </g>
 <defs>
  <clipPath id="p665bf3038d">
   <rect x="58.441875" y="23.837812" width="558" height="332.64"/>
  </clipPath>
 </defs>
</svg>
